<svg xmlns="http://www.w3.org/2000/svg" xmlns:xlink="http://www.w3.org/1999/xlink" width="1080" zoomAndPan="magnify" viewBox="0 0 810 809.999993" height="1080" preserveAspectRatio="xMidYMid meet" version="1.0"><defs><g/></defs><g fill="#ff00ff" fill-opacity="1"><g transform="translate(43.517215, 345.006535)"><g><path d="M 20 -80 L 68 -80 C 70.9375 -80 73.617188 -79.28125 76.046875 -77.84375 C 78.484375 -76.414062 80.414062 -74.484375 81.84375 -72.046875 C 83.28125 -69.617188 84 -66.9375 84 -64 L 84 0 L 68 0 L 68 -32 L 20 -32 L 20 0 L 4 0 L 4 -64 C 4 -66.9375 4.710938 -69.617188 6.140625 -72.046875 C 7.578125 -74.484375 9.507812 -76.414062 11.9375 -77.84375 C 14.375 -79.28125 17.0625 -80 20 -80 Z M 20 -64 L 20 -48 L 68 -48 L 68 -64 Z M 20 -64 "/></g></g></g><g fill="#ff00ff" fill-opacity="1"><g transform="translate(147.313772, 345.006535)"><g><path d="M 84 -64 L 84 -48 C 84 -45.0625 83.28125 -42.375 81.84375 -39.9375 C 80.414062 -37.507812 78.484375 -35.578125 76.046875 -34.140625 C 73.617188 -32.710938 70.9375 -32 68 -32 L 52 -32 L 68 -16 L 84 -16 L 84 0 L 64.796875 0 C 62.535156 0 60.601562 -0.800781 59 -2.40625 L 29.40625 -32 L 20 -32 L 20 0 L 4 0 L 4 -80 L 68 -80 C 70.9375 -80 73.617188 -79.28125 76.046875 -77.84375 C 78.484375 -76.414062 80.414062 -74.484375 81.84375 -72.046875 C 83.28125 -69.617188 84 -66.9375 84 -64 Z M 68 -64 L 20 -64 L 20 -48 L 68 -48 Z M 68 -64 "/></g></g></g><g fill="#ff00ff" fill-opacity="1"><g transform="translate(251.110329, 345.006535)"><g><path d="M 84 -80 L 84 -64 L 52 -64 L 52 0 L 36 0 L 36 -64 L 4 -64 L 4 -80 Z M 84 -80 "/></g></g></g><g fill="#ff00ff" fill-opacity="1"><g transform="translate(354.906885, 345.006535)"><g><path d="M 20 0 L 4 0 L 4 -72 C 4 -74.195312 4.78125 -76.078125 6.34375 -77.640625 C 7.914062 -79.210938 9.800781 -80 12 -80 C 14.195312 -80 16.097656 -79.195312 17.703125 -77.59375 L 68 -27.296875 L 68 -80 L 84 -80 L 84 -8 C 84 -5.800781 83.210938 -3.914062 81.640625 -2.34375 C 80.078125 -0.78125 78.195312 0 76 0 C 73.800781 0 71.898438 -0.800781 70.296875 -2.40625 L 20 -52.703125 Z M 20 0 "/></g></g></g><g fill="#ff00ff" fill-opacity="1"><g transform="translate(458.703442, 345.006535)"><g><path d="M 68 0 L 20 0 C 17.0625 0 14.375 -0.710938 11.9375 -2.140625 C 9.507812 -3.578125 7.578125 -5.507812 6.140625 -7.9375 C 4.710938 -10.375 4 -13.0625 4 -16 L 4 -64 C 4 -66.9375 4.710938 -69.617188 6.140625 -72.046875 C 7.578125 -74.484375 9.507812 -76.414062 11.9375 -77.84375 C 14.375 -79.28125 17.0625 -80 20 -80 L 68 -80 C 70.9375 -80 73.617188 -79.28125 76.046875 -77.84375 C 78.484375 -76.414062 80.414062 -74.484375 81.84375 -72.046875 C 83.28125 -69.617188 84 -66.9375 84 -64 L 84 -16 C 84 -13.132812 83.28125 -10.484375 81.84375 -8.046875 C 80.414062 -5.617188 78.5 -3.671875 76.09375 -2.203125 C 73.695312 -0.734375 71 0 68 0 Z M 20 -64 L 20 -16 L 68 -16 L 68 -64 Z M 20 -64 "/></g></g></g><g fill="#ff00ff" fill-opacity="1"><g transform="translate(562.499976, 345.006535)"><g><path d="M 68 0 L 20 0 C 17.0625 0 14.375 -0.710938 11.9375 -2.140625 C 9.507812 -3.578125 7.578125 -5.507812 6.140625 -7.9375 C 4.710938 -10.375 4 -13.0625 4 -16 L 4 -64 C 4 -66.9375 4.710938 -69.617188 6.140625 -72.046875 C 7.578125 -74.484375 9.507812 -76.414062 11.9375 -77.84375 C 14.375 -79.28125 17.0625 -80 20 -80 L 68 -80 C 70.9375 -80 73.617188 -79.28125 76.046875 -77.84375 C 78.484375 -76.414062 80.414062 -74.484375 81.84375 -72.046875 C 83.28125 -69.617188 84 -66.9375 84 -64 L 84 -16 C 84 -13.132812 83.28125 -10.484375 81.84375 -8.046875 C 80.414062 -5.617188 78.5 -3.671875 76.09375 -2.203125 C 73.695312 -0.734375 71 0 68 0 Z M 20 -64 L 20 -16 L 68 -16 L 68 -64 Z M 20 -64 "/></g></g></g><g fill="#ff00ff" fill-opacity="1"><g transform="translate(666.296511, 345.006535)"><g><path d="M 84 -80 L 84 -64 L 68 -64 L 44 -40 L 68 -16 L 84 -16 L 84 0 L 64.796875 0 C 62.535156 0 60.601562 -0.800781 59 -2.40625 L 29.40625 -32 L 20 -32 L 20 0 L 4 0 L 4 -80 L 20 -80 L 20 -48 L 29.40625 -48 L 59 -77.59375 C 60.601562 -79.195312 62.535156 -80 64.796875 -80 Z M 84 -80 "/></g></g></g><g fill="#00ffff" fill-opacity="1"><g transform="translate(55.69681, 347.818392)"><g><path d="M 20 -80 L 68 -80 C 70.9375 -80 73.617188 -79.28125 76.046875 -77.84375 C 78.484375 -76.414062 80.414062 -74.484375 81.84375 -72.046875 C 83.28125 -69.617188 84 -66.9375 84 -64 L 84 0 L 68 0 L 68 -32 L 20 -32 L 20 0 L 4 0 L 4 -64 C 4 -66.9375 4.710938 -69.617188 6.140625 -72.046875 C 7.578125 -74.484375 9.507812 -76.414062 11.9375 -77.84375 C 14.375 -79.28125 17.0625 -80 20 -80 Z M 20 -64 L 20 -48 L 68 -48 L 68 -64 Z M 20 -64 "/></g></g></g><g fill="#00ffff" fill-opacity="1"><g transform="translate(159.493367, 347.818392)"><g><path d="M 84 -64 L 84 -48 C 84 -45.0625 83.28125 -42.375 81.84375 -39.9375 C 80.414062 -37.507812 78.484375 -35.578125 76.046875 -34.140625 C 73.617188 -32.710938 70.9375 -32 68 -32 L 52 -32 L 68 -16 L 84 -16 L 84 0 L 64.796875 0 C 62.535156 0 60.601562 -0.800781 59 -2.40625 L 29.40625 -32 L 20 -32 L 20 0 L 4 0 L 4 -80 L 68 -80 C 70.9375 -80 73.617188 -79.28125 76.046875 -77.84375 C 78.484375 -76.414062 80.414062 -74.484375 81.84375 -72.046875 C 83.28125 -69.617188 84 -66.9375 84 -64 Z M 68 -64 L 20 -64 L 20 -48 L 68 -48 Z M 68 -64 "/></g></g></g><g fill="#00ffff" fill-opacity="1"><g transform="translate(263.289923, 347.818392)"><g><path d="M 84 -80 L 84 -64 L 52 -64 L 52 0 L 36 0 L 36 -64 L 4 -64 L 4 -80 Z M 84 -80 "/></g></g></g><g fill="#00ffff" fill-opacity="1"><g transform="translate(367.08648, 347.818392)"><g><path d="M 20 0 L 4 0 L 4 -72 C 4 -74.195312 4.78125 -76.078125 6.34375 -77.640625 C 7.914062 -79.210938 9.800781 -80 12 -80 C 14.195312 -80 16.097656 -79.195312 17.703125 -77.59375 L 68 -27.296875 L 68 -80 L 84 -80 L 84 -8 C 84 -5.800781 83.210938 -3.914062 81.640625 -2.34375 C 80.078125 -0.78125 78.195312 0 76 0 C 73.800781 0 71.898438 -0.800781 70.296875 -2.40625 L 20 -52.703125 Z M 20 0 "/></g></g></g><g fill="#00ffff" fill-opacity="1"><g transform="translate(470.883037, 347.818392)"><g><path d="M 68 0 L 20 0 C 17.0625 0 14.375 -0.710938 11.9375 -2.140625 C 9.507812 -3.578125 7.578125 -5.507812 6.140625 -7.9375 C 4.710938 -10.375 4 -13.0625 4 -16 L 4 -64 C 4 -66.9375 4.710938 -69.617188 6.140625 -72.046875 C 7.578125 -74.484375 9.507812 -76.414062 11.9375 -77.84375 C 14.375 -79.28125 17.0625 -80 20 -80 L 68 -80 C 70.9375 -80 73.617188 -79.28125 76.046875 -77.84375 C 78.484375 -76.414062 80.414062 -74.484375 81.84375 -72.046875 C 83.28125 -69.617188 84 -66.9375 84 -64 L 84 -16 C 84 -13.132812 83.28125 -10.484375 81.84375 -8.046875 C 80.414062 -5.617188 78.5 -3.671875 76.09375 -2.203125 C 73.695312 -0.734375 71 0 68 0 Z M 20 -64 L 20 -16 L 68 -16 L 68 -64 Z M 20 -64 "/></g></g></g><g fill="#00ffff" fill-opacity="1"><g transform="translate(574.679571, 347.818392)"><g><path d="M 68 0 L 20 0 C 17.0625 0 14.375 -0.710938 11.9375 -2.140625 C 9.507812 -3.578125 7.578125 -5.507812 6.140625 -7.9375 C 4.710938 -10.375 4 -13.0625 4 -16 L 4 -64 C 4 -66.9375 4.710938 -69.617188 6.140625 -72.046875 C 7.578125 -74.484375 9.507812 -76.414062 11.9375 -77.84375 C 14.375 -79.28125 17.0625 -80 20 -80 L 68 -80 C 70.9375 -80 73.617188 -79.28125 76.046875 -77.84375 C 78.484375 -76.414062 80.414062 -74.484375 81.84375 -72.046875 C 83.28125 -69.617188 84 -66.9375 84 -64 L 84 -16 C 84 -13.132812 83.28125 -10.484375 81.84375 -8.046875 C 80.414062 -5.617188 78.5 -3.671875 76.09375 -2.203125 C 73.695312 -0.734375 71 0 68 0 Z M 20 -64 L 20 -16 L 68 -16 L 68 -64 Z M 20 -64 "/></g></g></g><g fill="#00ffff" fill-opacity="1"><g transform="translate(678.476105, 347.818392)"><g><path d="M 84 -80 L 84 -64 L 68 -64 L 44 -40 L 68 -16 L 84 -16 L 84 0 L 64.796875 0 C 62.535156 0 60.601562 -0.800781 59 -2.40625 L 29.40625 -32 L 20 -32 L 20 0 L 4 0 L 4 -80 L 20 -80 L 20 -48 L 29.40625 -48 L 59 -77.59375 C 60.601562 -79.195312 62.535156 -80 64.796875 -80 Z M 84 -80 "/></g></g></g><g fill="#ffffff" fill-opacity="1"><g transform="translate(49.607012, 346.412463)"><g><path d="M 20 -80 L 68 -80 C 70.9375 -80 73.617188 -79.28125 76.046875 -77.84375 C 78.484375 -76.414062 80.414062 -74.484375 81.84375 -72.046875 C 83.28125 -69.617188 84 -66.9375 84 -64 L 84 0 L 68 0 L 68 -32 L 20 -32 L 20 0 L 4 0 L 4 -64 C 4 -66.9375 4.710938 -69.617188 6.140625 -72.046875 C 7.578125 -74.484375 9.507812 -76.414062 11.9375 -77.84375 C 14.375 -79.28125 17.0625 -80 20 -80 Z M 20 -64 L 20 -48 L 68 -48 L 68 -64 Z M 20 -64 "/></g></g></g><g fill="#ffffff" fill-opacity="1"><g transform="translate(153.403569, 346.412463)"><g><path d="M 84 -64 L 84 -48 C 84 -45.0625 83.28125 -42.375 81.84375 -39.9375 C 80.414062 -37.507812 78.484375 -35.578125 76.046875 -34.140625 C 73.617188 -32.710938 70.9375 -32 68 -32 L 52 -32 L 68 -16 L 84 -16 L 84 0 L 64.796875 0 C 62.535156 0 60.601562 -0.800781 59 -2.40625 L 29.40625 -32 L 20 -32 L 20 0 L 4 0 L 4 -80 L 68 -80 C 70.9375 -80 73.617188 -79.28125 76.046875 -77.84375 C 78.484375 -76.414062 80.414062 -74.484375 81.84375 -72.046875 C 83.28125 -69.617188 84 -66.9375 84 -64 Z M 68 -64 L 20 -64 L 20 -48 L 68 -48 Z M 68 -64 "/></g></g></g><g fill="#ffffff" fill-opacity="1"><g transform="translate(257.200126, 346.412463)"><g><path d="M 84 -80 L 84 -64 L 52 -64 L 52 0 L 36 0 L 36 -64 L 4 -64 L 4 -80 Z M 84 -80 "/></g></g></g><g fill="#ffffff" fill-opacity="1"><g transform="translate(360.996683, 346.412463)"><g><path d="M 20 0 L 4 0 L 4 -72 C 4 -74.195312 4.78125 -76.078125 6.34375 -77.640625 C 7.914062 -79.210938 9.800781 -80 12 -80 C 14.195312 -80 16.097656 -79.195312 17.703125 -77.59375 L 68 -27.296875 L 68 -80 L 84 -80 L 84 -8 C 84 -5.800781 83.210938 -3.914062 81.640625 -2.34375 C 80.078125 -0.78125 78.195312 0 76 0 C 73.800781 0 71.898438 -0.800781 70.296875 -2.40625 L 20 -52.703125 Z M 20 0 "/></g></g></g><g fill="#ffffff" fill-opacity="1"><g transform="translate(464.79324, 346.412463)"><g><path d="M 68 0 L 20 0 C 17.0625 0 14.375 -0.710938 11.9375 -2.140625 C 9.507812 -3.578125 7.578125 -5.507812 6.140625 -7.9375 C 4.710938 -10.375 4 -13.0625 4 -16 L 4 -64 C 4 -66.9375 4.710938 -69.617188 6.140625 -72.046875 C 7.578125 -74.484375 9.507812 -76.414062 11.9375 -77.84375 C 14.375 -79.28125 17.0625 -80 20 -80 L 68 -80 C 70.9375 -80 73.617188 -79.28125 76.046875 -77.84375 C 78.484375 -76.414062 80.414062 -74.484375 81.84375 -72.046875 C 83.28125 -69.617188 84 -66.9375 84 -64 L 84 -16 C 84 -13.132812 83.28125 -10.484375 81.84375 -8.046875 C 80.414062 -5.617188 78.5 -3.671875 76.09375 -2.203125 C 73.695312 -0.734375 71 0 68 0 Z M 20 -64 L 20 -16 L 68 -16 L 68 -64 Z M 20 -64 "/></g></g></g><g fill="#ffffff" fill-opacity="1"><g transform="translate(568.589774, 346.412463)"><g><path d="M 68 0 L 20 0 C 17.0625 0 14.375 -0.710938 11.9375 -2.140625 C 9.507812 -3.578125 7.578125 -5.507812 6.140625 -7.9375 C 4.710938 -10.375 4 -13.0625 4 -16 L 4 -64 C 4 -66.9375 4.710938 -69.617188 6.140625 -72.046875 C 7.578125 -74.484375 9.507812 -76.414062 11.9375 -77.84375 C 14.375 -79.28125 17.0625 -80 20 -80 L 68 -80 C 70.9375 -80 73.617188 -79.28125 76.046875 -77.84375 C 78.484375 -76.414062 80.414062 -74.484375 81.84375 -72.046875 C 83.28125 -69.617188 84 -66.9375 84 -64 L 84 -16 C 84 -13.132812 83.28125 -10.484375 81.84375 -8.046875 C 80.414062 -5.617188 78.5 -3.671875 76.09375 -2.203125 C 73.695312 -0.734375 71 0 68 0 Z M 20 -64 L 20 -16 L 68 -16 L 68 -64 Z M 20 -64 "/></g></g></g><g fill="#ffffff" fill-opacity="1"><g transform="translate(672.386308, 346.412463)"><g><path d="M 84 -80 L 84 -64 L 68 -64 L 44 -40 L 68 -16 L 84 -16 L 84 0 L 64.796875 0 C 62.535156 0 60.601562 -0.800781 59 -2.40625 L 29.40625 -32 L 20 -32 L 20 0 L 4 0 L 4 -80 L 20 -80 L 20 -48 L 29.40625 -48 L 59 -77.59375 C 60.601562 -79.195312 62.535156 -80 64.796875 -80 Z M 84 -80 "/></g></g></g></svg>